<svg width="320" height="320" viewBox="0 0 320 320" fill="none" xmlns="http://www.w3.org/2000/svg">
  <defs>
    <linearGradient id="g" x1="0" y1="0" x2="1" y2="1">
      <stop stop-color="#7cf3c5" stop-opacity="0.38"/>
      <stop offset="1" stop-color="#5aa3ff" stop-opacity="0.28"/>
    </linearGradient>
  </defs>
  <rect x="0.5" y="0.5" width="319" height="319" stroke="url(#g)" stroke-opacity="0.25"/>
  <g stroke="url(#g)" stroke-opacity="0.18" stroke-width="1">
    <line x1="40" y1="0" x2="40" y2="320"/>
    <line x1="80" y1="0" x2="80" y2="320"/>
    <line x1="120" y1="0" x2="120" y2="320"/>
    <line x1="160" y1="0" x2="160" y2="320"/>
    <line x1="200" y1="0" x2="200" y2="320"/>
    <line x1="240" y1="0" x2="240" y2="320"/>
    <line x1="280" y1="0" x2="280" y2="320"/>
    <line x1="0" y1="40" x2="320" y2="40"/>
    <line x1="0" y1="80" x2="320" y2="80"/>
    <line x1="0" y1="120" x2="320" y2="120"/>
    <line x1="0" y1="160" x2="320" y2="160"/>
    <line x1="0" y1="200" x2="320" y2="200"/>
    <line x1="0" y1="240" x2="320" y2="240"/>
    <line x1="0" y1="280" x2="320" y2="280"/>
  </g>
  <circle cx="60" cy="60" r="2" fill="#7cf3c5" fill-opacity="0.6"/>
  <circle cx="260" cy="120" r="2" fill="#5aa3ff" fill-opacity="0.6"/>
  <circle cx="180" cy="240" r="2" fill="#7cf3c5" fill-opacity="0.6"/>
</svg>
